<?xml version="1.0" encoding="utf-8"?>
<!-- Generator: Adobe Illustrator 17.0.0, SVG Export Plug-In . SVG Version: 6.00 Build 0)  -->
<!DOCTYPE svg PUBLIC "-//W3C//DTD SVG 1.1//EN" "http://www.w3.org/Graphics/SVG/1.1/DTD/svg11.dtd">
<svg version="1.1" id="Layer_1" xmlns="http://www.w3.org/2000/svg" xmlns:xlink="http://www.w3.org/1999/xlink" x="0px" y="0px"
	 width="100px" height="100px" viewBox="0 0 100 100" enable-background="new 0 0 100 100" xml:space="preserve">
<g>
	<path fill="#888888" d="M42.137,15.62c-1.556-1.556-4.628-2.826-6.828-2.822L17,12.827c-2.2,0.004-4,1.806-4,4.006v18.121
		c0,2.2,1.275,5.271,2.833,6.824l39.734,39.607c1.558,1.553,4.106,1.551,5.661-0.005l20.506-20.506c1.556-1.556,1.556-4.101,0-5.657
		L42.137,15.62z M20.833,24c-2.025,0-3.667-1.642-3.667-3.667s1.642-3.667,3.667-3.667c2.025,0,3.667,1.642,3.667,3.667
		S22.858,24,20.833,24z"/>
</g>
</svg>
